<?xml version="1.0" encoding="UTF-8" standalone="no"?>
<svg
   xmlns:dc="http://purl.org/dc/elements/1.1/"
   xmlns:cc="http://creativecommons.org/ns#"
   xmlns:rdf="http://www.w3.org/1999/02/22-rdf-syntax-ns#"
   xmlns:svg="http://www.w3.org/2000/svg"
   xmlns="http://www.w3.org/2000/svg"
   xmlns:sodipodi="http://sodipodi.sourceforge.net/DTD/sodipodi-0.dtd"
   xmlns:inkscape="http://www.inkscape.org/namespaces/inkscape"
   version="1.1"
   x="0px"
   y="0px"
   viewBox="0 0 32 32"
   enable-background="new 0 0 32 32"
   xml:space="preserve"
   id="svg3217"
   sodipodi:docname="logo.svg"
   inkscape:version="0.92.2 5c3e80d, 2017-08-06"><metadata
     id="metadata3223"><rdf:RDF><cc:Work
         rdf:about=""><dc:format>image/svg+xml</dc:format><dc:type
           rdf:resource="http://purl.org/dc/dcmitype/StillImage" /><dc:title></dc:title></cc:Work></rdf:RDF></metadata><defs
     id="defs3221" /><sodipodi:namedview
     pagecolor="#ffffff"
     bordercolor="#666666"
     borderopacity="1"
     objecttolerance="10"
     gridtolerance="10"
     guidetolerance="10"
     inkscape:pageopacity="0"
     inkscape:pageshadow="2"
     inkscape:window-width="1280"
     inkscape:window-height="691"
     id="namedview3219"
     showgrid="false"
     inkscape:zoom="15.0625"
     inkscape:cx="10.688797"
     inkscape:cy="13.344398"
     inkscape:window-x="0"
     inkscape:window-y="1"
     inkscape:window-maximized="1"
     inkscape:current-layer="svg3217" /><g
     display="none"
     id="g3163"><rect
       x="-111.333"
       y="-102.667"
       display="inline"
       fill="#000000"
       width="473.333"
       height="236"
       id="rect3161" /></g><g
     display="none"
     id="g3185"><g
       display="inline"
       id="g3183"><g
         id="g3167"><rect
           x="13.649"
           y="4.686"
           transform="matrix(0.7071 -0.7071 0.7071 0.7071 -6.6274 16)"
           fill="#000000"
           width="4.703"
           height="22.627"
           id="rect3165" /></g><g
         id="g3181"><g
           id="g3171"><rect
             x="-1.651"
             y="7.311"
             transform="matrix(0.7071 -0.7071 0.7071 0.7071 -4.0024 9.6627)"
             fill="#000000"
             width="22.627"
             height="4.703"
             id="rect3169" /></g><g
           id="g3175"><rect
             x="4.686"
             y="13.649"
             transform="matrix(0.7071 -0.7071 0.7071 0.7071 -6.6274 16)"
             fill="#000000"
             width="22.627"
             height="4.703"
             id="rect3173" /></g><g
           id="g3179"><rect
             x="11.024"
             y="19.986"
             transform="matrix(0.7071 -0.7071 0.7071 0.7071 -9.2524 22.3373)"
             fill="#000000"
             width="22.627"
             height="4.703"
             id="rect3177" /></g></g></g></g><g
     display="none"
     id="g3191"><g
       display="inline"
       id="g3189"><path
         fill="#000000"
         d="M16,1.414l1.911,1.911l-5.63,5.63l-0.707,0.707l0.707,0.707l3.012,3.012L16,14.089l0.707-0.707l5.63-5.63    l1.911,1.911l-5.63,5.63L17.911,16l0.707,0.707l3.012,3.012l0.707,0.707l0.707-0.707l5.63-5.63L30.586,16l-5.63,5.63l-3.325,3.325    L16,30.586l-1.911-1.911l5.63-5.63l0.707-0.707l-0.707-0.707l-3.012-3.012L16,17.911l-0.707,0.707l-5.63,5.63l-1.911-1.911    l5.63-5.63L14.089,16l-0.707-0.707l-3.012-3.012l-0.707-0.707l-0.707,0.707l-5.63,5.63L1.414,16l5.63-5.63l3.325-3.325L16,1.414     M16,0L9.663,6.337L6.337,9.663L0,16l3.325,3.325l6.337-6.337L12.675,16l-6.337,6.337l3.325,3.325L16,19.325l3.012,3.012    l-6.337,6.337L16,32l6.337-6.337l3.325-3.325L32,16l-3.325-3.325l-6.337,6.337L19.325,16l6.337-6.337l-3.325-3.325L16,12.675    l-3.012-3.012l6.337-6.337L16,0L16,0z"
         id="path3187" /></g></g><g
     display="none"
     id="g3209"><g
       display="inline"
       id="g3195"><circle
         fill="#000000"
         cx="16"
         cy="16"
         r="16"
         id="circle3193" /></g><g
       display="inline"
       id="g3207"><g
         id="g3199"><polygon
           fill="#000000"
           points="13.382,28.675 19.719,22.337 16,18.618 9.663,24.956 7.044,22.337 13.382,16 9.663,12.281      3.325,18.618 0.707,16 16,0.707 18.618,3.325 12.281,9.663 16,13.382 22.337,7.044 24.956,9.663 18.618,16 22.337,19.719      28.675,13.382 31.293,16 16,31.293    "
           id="polygon3197" /></g><g
         id="g3205"><g
           id="g3203"><path
             d="M16,1.414l1.911,1.911l-5.63,5.63l-0.707,0.707l0.707,0.707l3.012,3.012L16,14.089l0.707-0.707l5.63-5.63l1.911,1.911      l-5.63,5.63L17.911,16l0.707,0.707l3.012,3.012l0.707,0.707l0.707-0.707l5.63-5.63L30.586,16l-5.63,5.63l-3.325,3.325L16,30.586      l-1.911-1.911l5.63-5.63l0.707-0.707l-0.707-0.707l-3.012-3.012L16,17.911l-0.707,0.707l-5.63,5.63l-1.911-1.911l5.63-5.63      L14.089,16l-0.707-0.707l-3.012-3.012l-0.707-0.707l-0.707,0.707l-5.63,5.63L1.414,16l5.63-5.63l3.325-3.325L16,1.414 M16,0      L9.663,6.337L6.337,9.663L0,16l3.325,3.325l6.337-6.337L12.675,16l-6.337,6.337l3.325,3.325L16,19.325l3.012,3.012l-6.337,6.337      L16,32l6.337-6.337l3.325-3.325L32,16l-3.325-3.325l-6.337,6.337L19.325,16l6.337-6.337l-3.325-3.325L16,12.675l-3.012-3.012      l6.337-6.337L16,0L16,0z"
             id="path3201" /></g></g></g></g><g
     id="g3215"><g
       id="g3213"><polygon
         points="9.663,12.988 12.675,16 6.337,22.337 9.663,25.663 16,19.325 19.012,22.337 12.675,28.675 16,32 22.337,25.663     25.663,22.337 32,16 28.675,12.675 22.337,19.012 19.325,16 25.663,9.663 22.337,6.337 16,12.675 12.988,9.663 19.325,3.325 16,0     9.663,6.337 6.337,9.663 0,16 3.325,19.325   "
         id="polygon3211" /></g></g></svg>